Coordinates
version=1
nRows=9
nColumns=63
inDegrees=yes

Units are S.I. units (second, meters, Newtons, ...)
If the header above contains a line with 'inDegrees', this indicates whether rotational values are in degrees (yes) or radians (no).

endheader
time	pelvis_tilt	pelvis_list	pelvis_rotation	pelvis_tx	pelvis_ty	pelvis_tz	hip_flexion_r	hip_adduction_r	hip_rotation_r	knee_angle_r	knee_angle_r_beta	ankle_angle_r	subtalar_angle_r	mtp_angle_r	hip_flexion_l	hip_adduction_l	hip_rotation_l	knee_angle_l	knee_angle_l_beta	ankle_angle_l	subtalar_angle_l	mtp_angle_l	L5_S1_Flex_Ext	L5_S1_Lat_Bending	L5_S1_axial_rotation	L4_L5_Flex_Ext	L4_L5_Lat_Bending	L4_L5_axial_rotation	L3_L4_Flex_Ext	L3_L4_Lat_Bending	L3_L4_axial_rotation	L2_L3_Flex_Ext	L2_L3_Lat_Bending	L2_L3_axial_rotation	L1_L2_Flex_Ext	L1_L2_Lat_Bending	L1_L2_axial_rotation	L1_T12_Flex_Ext	L1_T12_Lat_Bending	L1_T12_axial_rotation	Abs_r3	Abs_r2	Abs_r1	Abs_t1	Abs_t2	neck_flexion	neck_bending	neck_rotation	arm_flex_r	arm_add_r	arm_rot_r	elbow_flex_r	pro_sup_r	wrist_flex_r	wrist_dev_r	arm_flex_l	arm_add_l	arm_rot_l	elbow_flex_l	pro_sup_l	wrist_flex_l	wrist_dev_l
1.017241	2.343129	-4.182678	99.689365	0.206650	0.982770	0.135035	2.610714	2.656591	-21.433354	12.682558	0.221352	33.992512	16.693925	0.000000	3.118134	-2.070993	-3.142646	8.342998	0.145613	32.129314	10.124428	0.000000	0.143354	-0.179052	-1.054710	0.266222	-0.238139	-1.120629	0.235516	-0.435347	-1.120629	0.163839	-0.435347	-0.922871	0.133118	-0.365123	-0.856952	0.081912	-0.277352	-0.791032	1.023960	-2.025472	-5.865979	0.000000	0.000000	23.261587	-2.884939	-7.715499	-11.661600	-34.960064	47.309145	60.813093	89.395636	-18.408826	-2.681694	6.879045	-23.115529	97.216346	18.137445	48.695296	-2.535612	-4.605421
1.034483	2.229732	-4.031458	99.703172	0.207762	0.982681	0.134138	2.506111	2.609139	-21.517514	12.943080	0.225899	34.267948	16.681386	0.000000	3.020033	-2.114337	-3.554740	8.577612	0.149708	32.383797	10.561719	0.000000	0.136932	-0.218954	-1.028126	0.254296	-0.291209	-1.092384	0.224965	-0.532366	-1.092384	0.156499	-0.532366	-0.899611	0.127155	-0.446492	-0.835353	0.078243	-0.339160	-0.771095	0.978089	-2.476856	-5.718131	0.000000	0.000000	23.687328	-3.164400	-7.901453	-12.272379	-34.484492	46.283701	60.514883	89.263957	-18.143670	-2.205928	6.361259	-23.155057	94.353757	17.974567	49.845712	-2.556766	-5.185946
1.051724	2.130486	-3.866768	99.716676	0.208859	0.982631	0.133371	2.441663	2.566055	-21.543108	13.271217	0.231626	34.553977	16.665697	0.000000	2.949020	-2.187671	-4.071910	8.878327	0.154956	32.653650	11.123539	0.000000	0.128803	-0.258116	-1.002927	0.239200	-0.343295	-1.065610	0.211610	-0.627584	-1.065610	0.147209	-0.627584	-0.877562	0.119606	-0.526351	-0.814879	0.073598	-0.399822	-0.752196	0.920027	-2.919863	-5.577982	0.000000	0.000000	24.007304	-3.385818	-8.130329	-12.821303	-34.029829	45.208105	60.263407	88.943165	-17.327684	-1.421751	5.561746	-23.172887	89.664126	18.100046	51.834276	-2.578318	-5.734228
1.068966	2.019716	-3.705651	99.736633	0.209943	0.982612	0.132811	2.436930	2.496387	-21.515236	13.666163	0.238520	34.861323	16.646646	0.000000	2.924752	-2.247511	-4.539059	9.240300	0.161274	32.902080	11.628177	0.000000	0.119753	-0.299800	-0.979393	0.222393	-0.398735	-1.040605	0.196742	-0.728935	-1.040605	0.136866	-0.728935	-0.856969	0.111203	-0.611353	-0.795757	0.068427	-0.464391	-0.734545	0.855384	-3.391403	-5.447088	0.000000	0.000000	24.244055	-3.508040	-8.414132	-13.258101	-33.601260	44.299784	60.017266	88.455478	-16.498501	-0.628742	4.702931	-23.223193	84.483701	18.507786	53.338482	-2.700012	-6.475798
1.086207	1.919654	-3.560600	99.792822	0.210945	0.982585	0.132500	2.502373	2.416662	-21.473134	14.116009	0.246371	35.177231	16.630593	0.000000	2.970493	-2.316968	-5.007140	9.661371	0.168623	33.154009	12.198309	0.000000	0.111237	-0.341023	-0.967055	0.206579	-0.453561	-1.027496	0.182752	-0.829163	-1.027496	0.127133	-0.829163	-0.846173	0.103295	-0.695414	-0.785732	0.063561	-0.528245	-0.725291	0.794556	-3.857721	-5.378470	0.000000	0.000000	24.395891	-3.549658	-8.765410	-13.567079	-33.189854	43.499135	59.779598	87.826817	-15.384466	0.352533	3.689603	-23.261207	78.382322	19.190880	55.191577	-2.885805	-7.112688
1.103448	1.816135	-3.435852	99.876129	0.211893	0.982556	0.132478	2.634944	2.311609	-21.425217	14.607374	0.254947	35.496547	16.640197	0.000000	3.084585	-2.379950	-5.474304	10.129448	0.176792	33.391648	12.820088	0.000000	0.101943	-0.383606	-0.961881	0.189318	-0.510196	-1.021999	0.167482	-0.932700	-1.021999	0.116511	-0.932700	-0.841646	0.094664	-0.782250	-0.781529	0.058250	-0.594206	-0.721411	0.728168	-4.339429	-5.349696	0.000000	0.000000	24.491458	-3.494602	-9.202319	-13.724220	-32.771819	42.960299	59.462046	87.053682	-14.533541	1.108052	2.641600	-23.289774	71.977111	20.089165	57.430543	-3.142882	-7.765752
1.120690	1.713432	-3.310788	99.989862	0.212749	0.982556	0.132804	2.807122	2.197964	-21.332853	15.113760	0.263785	35.797176	16.605756	0.000000	3.237207	-2.436657	-5.893822	10.617682	0.185314	33.595139	13.442149	0.000000	0.087137	-0.425419	-0.962211	0.161823	-0.565807	-1.022349	0.143158	-1.034364	-1.022349	0.099589	-1.034364	-0.841935	0.080916	-0.867515	-0.781797	0.049790	-0.658974	-0.721658	0.622413	-4.812425	-5.351530	0.000000	0.000000	24.528075	-3.350575	-9.674357	-13.744058	-32.367907	42.602447	59.113128	86.096766	-13.781600	1.742494	1.676112	-23.314900	65.684731	21.163845	60.070731	-3.493684	-8.297970
1.137931	1.622277	-3.226365	100.115428	0.213507	0.982520	0.133427	3.055643	2.070437	-21.235304	15.627542	0.272752	36.091198	16.599837	0.000000	3.458063	-2.489292	-6.290516	11.109507	0.193897	33.755753	14.051740	0.000000	0.073653	-0.464837	-0.964089	0.136781	-0.618233	-1.024344	0.121005	-1.130205	-1.024344	0.084178	-1.130205	-0.843577	0.068394	-0.947896	-0.783322	0.042085	-0.720033	-0.723066	0.526096	-5.258331	-5.361971	0.000000	0.000000	24.520103	-3.158718	-10.165638	-13.691419	-31.983047	42.373033	58.722060	85.004116	-13.310873	2.087006	0.771022	-23.285164	59.648813	22.308655	63.150348	-3.933234	-8.952505
1.155172	1.536506	-3.178553	100.257296	0.214163	0.982465	0.134349	3.358917	1.931744	-21.119686	16.115802	0.281274	36.373718	16.589614	0.000000	3.740847	-2.538053	-6.756652	11.604180	0.202531	33.882713	14.763889	0.000000	0.059810	-0.502017	-0.974180	0.111074	-0.667683	-1.035066	0.098262	-1.220604	-1.035066	0.068357	-1.220604	-0.852408	0.055540	-1.023713	-0.791521	0.034176	-0.777624	-0.730635	0.427219	-5.678917	-5.418098	0.000000	0.000000	24.485616	-2.921492	-10.642762	-13.512606	-31.644760	42.315716	58.315194	83.846657	-13.006035	2.221988	-0.096190	-23.224055	53.808543	23.525218	66.692437	-4.353207	-9.602272
